<svg xmlns="http://www.w3.org/2000/svg" version="1.1" xmlns:xlink="http://www.w3.org/1999/xlink" viewBox="0 0 200 200"><rect width="200" height="200" fill="url('#gradient')"></rect><defs><linearGradient id="gradient" gradientTransform="rotate(45 0.5 0.5)"><stop offset="0%" stop-color="#326d7e"></stop><stop offset="100%" stop-color="#2c3034"></stop></linearGradient></defs><g><g fill="#fcfaf8" transform="matrix(5.011849562081402,0,0,5.011849562081402,1.638538681281588,135.63850682153952)" stroke="#f7e9ad" stroke-width="0.6"><path d="M9.17-4.81L12.58-4.81Q12.51-3.33 11.78-2.19Q11.04-1.05 9.72-0.43Q8.40 0.20 6.70 0.20L6.70 0.20Q3.90 0.20 2.29-1.63Q0.67-3.46 0.67-6.79L0.67-6.79L0.67-7.49Q0.67-9.58 1.40-11.15Q2.13-12.71 3.50-13.57Q4.86-14.42 6.66-14.42L6.66-14.42Q9.25-14.42 10.82-13.06Q12.39-11.70 12.61-9.31L12.61-9.31L9.19-9.31Q9.15-10.61 8.54-11.17Q7.92-11.74 6.66-11.74L6.66-11.74Q5.38-11.74 4.79-10.78Q4.19-9.82 4.16-7.72L4.16-7.72L4.16-6.72Q4.16-4.44 4.73-3.47Q5.30-2.49 6.70-2.49L6.70-2.49Q7.88-2.49 8.51-3.05Q9.13-3.60 9.17-4.81L9.17-4.81ZM23.11 0L22.28-2.66L17.58-2.66L16.76 0L13.10 0L18.31-14.22L21.53-14.22L26.79 0L23.11 0ZM19.92-10.23L18.40-5.30L21.46-5.30L19.92-10.23ZM35.16-3.78L35.16-3.78Q35.16-4.53 34.62-4.95Q34.09-5.37 32.75-5.82Q31.42-6.27 30.57-6.69L30.57-6.69Q27.80-8.05 27.80-10.42L27.80-10.42Q27.80-11.60 28.49-12.50Q29.18-13.41 30.44-13.91Q31.70-14.41 33.27-14.41L33.27-14.41Q34.80-14.41 36.02-13.87Q37.24-13.32 37.91-12.31Q38.58-11.30 38.58-10L38.58-10L35.17-10Q35.17-10.87 34.63-11.35Q34.10-11.83 33.19-11.83L33.19-11.83Q32.28-11.83 31.74-11.42Q31.21-11.02 31.21-10.39L31.21-10.39Q31.21-9.84 31.80-9.40Q32.38-8.96 33.86-8.48Q35.33-8.01 36.28-7.46L36.28-7.46Q38.58-6.13 38.58-3.80L38.58-3.80Q38.58-1.93 37.18-0.87Q35.77 0.20 33.32 0.20L33.32 0.20Q31.59 0.20 30.19-0.42Q28.79-1.04 28.08-2.12Q27.37-3.20 27.37-4.61L27.37-4.61L30.81-4.61Q30.81-3.47 31.40-2.92Q31.99-2.38 33.32-2.38L33.32-2.38Q34.17-2.38 34.66-2.75Q35.16-3.12 35.16-3.78Z"></path></g></g></svg>